<?xml version="1.0" standalone="no"?>
<!DOCTYPE svg PUBLIC "-//W3C//DTD SVG 20010904//EN"
 "http://www.w3.org/TR/2001/REC-SVG-20010904/DTD/svg10.dtd">
<svg version="1.0" xmlns="http://www.w3.org/2000/svg"
 width="960.000000pt" height="958.000000pt" viewBox="0 0 960.000000 958.000000"
 preserveAspectRatio="xMidYMid meet">

<g transform="translate(0.000000,958.000000) scale(0.100000,-0.100000)"
fill="#000000" stroke="none">
<path d="M4445 9569 c-38 -4 -117 -13 -175 -19 -1089 -121 -2090 -604 -2865
-1384 -561 -564 -947 -1206 -1187 -1971 -48 -154 -46 -148 -91 -345 -57 -245
-87 -452 -112 -780 -22 -274 -20 -385 15 -755 32 -334 109 -709 205 -1000 124
-373 257 -665 460 -1007 283 -477 682 -930 1135 -1289 313 -247 689 -474 1040
-626 58 -25 119 -51 135 -59 52 -23 224 -84 370 -130 260 -83 501 -135 860
-186 63 -9 232 -13 570 -13 493 0 505 1 785 46 439 71 909 221 1315 420 496
243 898 531 1290 923 116 117 297 316 351 387 296 392 422 594 587 939 168
351 296 728 366 1080 42 208 62 341 83 550 17 164 17 717 0 875 -67 638 -221
1173 -493 1710 -439 869 -1093 1553 -1950 2039 -83 47 -291 150 -403 201 -329
147 -770 280 -1111 335 -38 6 -95 15 -125 20 -52 8 -109 15 -342 40 -111 12
-609 11 -713 -1z m635 -129 c470 -30 890 -117 1323 -275 951 -345 1782 -1012
2327 -1865 441 -691 680 -1429 731 -2260 22 -362 -15 -870 -86 -1185 -7 -33
-23 -103 -35 -155 -152 -677 -498 -1361 -969 -1920 -737 -873 -1764 -1447
-2876 -1609 -244 -35 -324 -42 -585 -48 -878 -20 -1693 189 -2450 628 -467
270 -928 663 -1267 1079 -327 402 -580 842 -762 1325 -260 693 -349 1467 -255
2215 183 1462 1054 2755 2345 3481 270 152 534 269 814 361 571 187 1164 264
1745 228z"/>
<path d="M4405 9339 c-857 -83 -1620 -373 -2305 -877 -397 -292 -774 -682
-1052 -1087 -400 -584 -657 -1243 -758 -1945 -55 -385 -53 -923 5 -1305 122
-804 438 -1537 932 -2160 744 -939 1795 -1537 2983 -1699 304 -41 816 -47
1110 -12 760 90 1440 344 2070 772 398 270 785 642 1080 1039 507 681 802
1448 885 2305 27 268 16 805 -21 1040 -19 129 -28 179 -51 290 -55 275 -165
638 -253 835 -10 22 -30 69 -45 105 -72 172 -243 484 -366 668 -184 274 -343
466 -584 707 -301 301 -584 521 -935 725 -136 79 -371 199 -452 231 -28 11
-70 28 -92 38 -296 133 -814 270 -1176 310 -52 6 -135 15 -185 21 -107 12
-662 11 -790 -1z m867 -143 c547 -61 1027 -201 1507 -439 1370 -679 2295
-2024 2441 -3547 49 -509 3 -1056 -129 -1545 l-8 -30 -11 25 c-8 19 -11 21
-11 7 -1 -10 -5 -15 -11 -12 -6 4 -7 -1 -3 -12 6 -16 5 -16 -10 -4 -14 11 -18
11 -23 -3 -3 -9 -16 -16 -28 -16 -12 0 -26 -4 -31 -9 -13 -12 -75 -16 -98 -6
-10 4 -28 3 -40 -3 -12 -6 -41 -12 -64 -14 -39 -3 -42 -2 -38 17 3 11 2 15 -1
8 -3 -7 -11 -10 -18 -7 -7 3 -19 -3 -27 -12 -12 -15 -12 -16 9 -10 17 6 21 4
16 -8 -4 -10 -18 -16 -39 -16 -18 0 -38 -7 -45 -15 -7 -9 -15 -13 -18 -10 -3
2 7 16 21 29 14 13 28 21 31 18 3 -3 6 0 6 6 0 7 -3 12 -6 12 -13 0 -93 -73
-91 -83 1 -7 -7 -11 -18 -10 -11 1 -51 -10 -90 -24 -58 -21 -92 -27 -195 -30
-110 -4 -137 -1 -223 21 -288 74 -445 283 -402 536 6 41 15 82 19 91 4 10 2
16 -8 16 -8 0 -12 -6 -9 -14 3 -7 0 -13 -7 -13 -7 0 -10 -8 -7 -20 3 -11 2
-18 -3 -15 -4 2 -10 -10 -14 -28 -13 -63 -102 -289 -167 -421 -16 -32 -29 -59
-29 -61 0 -8 272 -90 530 -160 30 -8 102 -28 160 -44 380 -105 609 -167 703
-191 59 -15 110 -29 112 -32 13 -12 -152 -356 -260 -543 -271 -470 -640 -899
-1060 -1234 -555 -444 -1179 -739 -1867 -885 -475 -101 -1037 -119 -1528 -50
-763 107 -1482 412 -2095 888 -858 667 -1450 1640 -1638 2692 -56 313 -71 482
-71 809 0 402 36 692 130 1073 273 1100 980 2074 1944 2675 595 372 1250 593
1940 657 63 5 135 12 160 14 101 9 584 -4 712 -18z m3702 -5615 c4 -5 3 -16 0
-24 -5 -14 -8 -13 -25 1 -10 9 -19 20 -19 24 0 11 38 10 44 -1z m-174 -11 c0
-5 -4 -10 -10 -10 -5 0 -10 5 -10 10 0 6 5 10 10 10 6 0 10 -4 10 -10z m-175
-60 c8 -13 -5 -13 -25 0 -13 8 -13 10 2 10 9 0 20 -4 23 -10z"/>
<path d="M4373 8963 l-123 -4 0 -49 0 -50 53 0 c28 0 63 -3 76 -7 l23 -6 -3
-407 -4 -407 -92 1 c-50 0 -94 -2 -97 -5 -3 -3 -3 -27 0 -52 l7 -47 107 0 c59
0 122 -3 139 -6 l31 -7 -5 334 c-4 184 -3 363 2 399 l8 65 181 -270 c99 -149
209 -319 244 -378 l63 -108 51 3 51 3 -3 320 c-1 176 -5 375 -9 442 l-6 122
118 -6 118 -6 -6 48 c-4 27 -10 51 -13 54 -6 6 -333 28 -338 23 -2 -1 3 -41
10 -90 21 -143 34 -345 34 -526 l0 -171 -52 73 c-80 108 -213 325 -329 534
-57 103 -106 186 -109 185 -3 -1 -60 -3 -127 -4z"/>
<path d="M5820 8756 c-7 -25 -10 -49 -7 -54 4 -5 37 -14 76 -21 l69 -13 -25
-71 c-13 -40 -51 -148 -83 -242 -49 -142 -94 -269 -162 -457 l-9 -26 -54 19
c-30 10 -59 19 -64 19 -11 0 -43 -89 -36 -101 9 -13 347 -121 355 -112 9 10
30 72 30 88 0 7 -21 18 -48 24 -26 7 -53 15 -60 20 -13 8 13 89 143 446 24 66
63 175 86 243 23 67 45 122 49 122 4 0 33 -9 64 -20 42 -14 58 -16 61 -7 2 7
8 27 14 46 6 19 10 35 9 37 -6 5 -369 104 -382 104 -7 0 -19 -20 -26 -44z"/>
<path d="M3275 8658 c-27 -11 -101 -36 -164 -54 -63 -19 -116 -36 -118 -37 -8
-9 33 -97 44 -97 8 0 55 14 105 30 94 31 123 36 113 21 -20 -33 -55 -499 -55
-734 l0 -145 -52 -18 c-29 -9 -56 -18 -60 -21 -9 -5 28 -108 38 -106 5 0 116
36 247 78 201 65 237 80 232 94 -4 9 -12 30 -18 46 -5 17 -11 31 -12 33 -2 2
-54 -13 -117 -33 -62 -19 -121 -38 -131 -41 -17 -5 -18 2 -12 128 3 73 8 143
11 155 3 18 23 28 122 59 64 20 138 47 163 60 l47 23 61 -92 c34 -51 61 -96
61 -99 0 -4 -25 -12 -55 -18 -30 -6 -57 -16 -61 -21 -5 -9 24 -99 33 -99 4 0
325 111 381 131 22 8 22 9 5 51 -9 24 -17 44 -19 46 -3 5 -62 -13 -121 -37
l-53 -21 -52 78 c-28 42 -82 118 -118 167 -69 93 -388 495 -393 494 -1 0 -24
-9 -52 -21z m288 -421 c15 -20 26 -41 23 -46 -11 -16 -243 -97 -253 -88 -2 3
-1 98 3 211 l7 205 96 -122 c53 -67 109 -139 124 -160z"/>
<path d="M6787 8329 c-87 -13 -152 -75 -177 -170 -19 -70 1 -132 92 -281 103
-169 118 -202 118 -262 0 -44 -4 -53 -43 -91 -50 -51 -107 -65 -185 -45 -164
41 -246 184 -197 346 8 27 15 52 15 55 0 4 -23 10 -52 13 -57 8 -61 5 -79 -59
-20 -74 -13 -178 17 -244 100 -224 428 -301 574 -135 45 51 60 93 59 161 -1
76 -9 95 -111 264 -91 150 -112 206 -96 266 13 50 60 83 119 83 120 0 214
-105 180 -202 -6 -17 -8 -34 -3 -37 40 -28 84 -53 86 -50 9 11 156 239 156
243 0 6 -84 56 -93 56 -4 0 -18 -21 -31 -47 l-24 -48 -11 27 c-14 36 -81 103
-129 127 -51 26 -127 38 -185 30z"/>
<path d="M2130 8114 c-80 -63 -149 -119 -154 -124 -4 -5 9 -27 31 -50 l39 -43
52 52 c29 29 56 49 62 46 9 -6 277 -334 440 -539 l94 -119 -24 -16 c-13 -9
-37 -27 -52 -40 l-28 -23 32 -38 c18 -21 37 -39 42 -39 14 -1 296 203 295 214
0 6 -14 27 -32 47 l-33 37 -49 -39 c-27 -21 -52 -37 -56 -34 -7 4 -118 142
-358 444 -42 52 -99 123 -128 158 -29 35 -53 67 -53 71 0 4 20 22 45 40 25 18
45 38 45 45 0 11 -50 66 -61 66 -2 0 -69 -52 -149 -116z"/>
<path d="M4425 7705 c-66 -7 -163 -20 -215 -29 -110 -19 -345 -79 -393 -101
l-32 -14 40 3 c22 2 105 20 185 39 211 52 364 76 550 88 91 6 190 14 220 18
94 14 -220 10 -355 -4z"/>
<path d="M7650 7599 c-75 -23 -141 -96 -159 -179 -11 -50 -1 -110 49 -300 33
-127 37 -174 16 -224 -33 -80 -141 -108 -238 -63 -57 27 -111 74 -134 119 -38
73 -26 189 27 273 16 25 29 48 29 50 0 2 -21 13 -47 25 l-47 21 -19 -23 c-33
-43 -65 -114 -78 -175 -14 -69 -2 -147 32 -215 30 -58 118 -141 184 -173 51
-25 72 -29 145 -29 68 -1 93 3 125 21 89 47 145 134 145 226 0 21 -19 109 -41
195 -45 169 -51 240 -26 288 67 129 282 47 282 -107 0 -36 -6 -53 -24 -73
l-23 -25 33 -40 c19 -22 38 -41 42 -41 5 0 58 43 119 97 l110 96 -41 41 -41
40 -35 -37 c-41 -43 -45 -45 -45 -14 -1 63 -83 168 -163 206 -52 25 -131 34
-177 20z"/>
<path d="M4640 7569 c-307 -12 -516 -49 -792 -139 -99 -33 -185 -63 -191 -68
-7 -5 -28 -15 -47 -22 -72 -27 -227 -105 -274 -137 -26 -18 -53 -33 -58 -33
-33 0 -331 -221 -443 -330 -61 -58 -240 -249 -263 -280 -9 -12 -28 -36 -43
-54 -46 -57 -115 -160 -151 -226 -20 -36 -51 -90 -70 -120 -29 -50 -49 -91
-80 -170 -6 -14 -16 -38 -24 -55 -8 -16 -25 -66 -40 -110 -14 -44 -30 -83 -36
-86 -14 -9 -56 -245 -46 -261 4 -7 7 -31 7 -53 0 -34 -2 -37 -9 -17 -5 12 -11
22 -12 22 -6 0 -11 -55 -11 -110 0 -30 -4 -58 -9 -61 -5 -3 -11 -30 -15 -60
l-6 -54 22 22 c11 12 21 31 21 42 0 10 7 21 15 25 10 3 15 19 15 45 0 54 21
142 34 138 5 -2 14 -16 19 -31 7 -21 5 -30 -8 -40 -10 -7 -15 -20 -12 -32 5
-18 5 -17 12 4 10 30 28 28 67 -10 28 -29 33 -39 32 -80 0 -50 4 -56 24 -36 6
6 21 13 33 15 15 2 19 -1 17 -14 -2 -10 -10 -17 -16 -15 -7 1 -15 -4 -18 -12
-3 -8 -13 -12 -25 -9 -14 4 -19 0 -19 -16 0 -12 7 -24 15 -27 8 -4 15 -12 15
-19 0 -7 7 -28 15 -46 l16 -34 -6 43 c-5 41 9 60 18 25 3 -12 5 -9 6 8 0 14
10 68 21 120 12 52 23 108 26 124 14 76 103 313 164 440 112 231 244 418 430
609 287 294 622 505 1007 631 671 221 1428 152 2037 -186 61 -34 125 -73 142
-86 17 -12 34 -23 39 -23 10 0 155 -110 240 -183 39 -33 120 -111 180 -174 97
-101 110 -111 111 -89 1 16 -2 23 -9 19 -6 -4 -7 -1 -2 6 12 20 28 -3 27 -38
-1 -26 2 -30 29 -29 34 1 38 13 8 21 -12 3 -18 10 -15 16 4 6 13 8 21 4 8 -3
15 0 15 6 0 6 -7 11 -15 11 -11 0 -15 12 -15 44 0 26 6 48 15 56 8 7 15 18 15
25 0 21 -31 76 -51 88 -10 6 -19 17 -19 24 0 7 -6 13 -14 13 -16 0 -30 71 -15
80 6 4 4 12 -6 20 -12 10 -18 10 -30 0 -12 -10 -15 -9 -15 8 0 12 6 19 16 18
9 0 21 7 27 16 9 14 8 20 -7 31 -12 9 -17 20 -13 31 4 10 1 16 -9 16 -10 0
-13 7 -9 23 4 16 -1 29 -19 45 -15 12 -26 27 -26 33 0 6 -12 9 -27 7 -24 -3
-28 1 -31 25 -2 15 -8 27 -14 27 -6 0 -18 7 -27 15 -63 58 -82 72 -119 90 -23
11 -45 28 -48 38 -3 9 -9 15 -14 12 -8 -5 -74 44 -125 93 -11 11 -37 25 -57
31 -21 7 -40 16 -43 21 -3 4 -31 21 -62 38 -32 16 -80 42 -107 56 -27 14 -59
28 -70 30 -12 2 -43 15 -71 29 -52 26 -170 68 -240 86 -22 5 -78 19 -125 31
-244 61 -520 89 -780 79z m2090 -1204 c0 -8 -4 -15 -10 -15 -5 0 -7 7 -4 15 4
8 8 15 10 15 2 0 4 -7 4 -15z m-4610 -869 c0 -3 -4 -8 -10 -11 -5 -3 -10 -1
-10 4 0 6 5 11 10 11 6 0 10 -2 10 -4z m244 -110 c-7 -31 -20 -34 -27 -7 -3
14 -1 18 9 14 9 -3 14 2 14 13 0 9 2 15 5 12 4 -3 3 -17 -1 -32z m-37 -38 c-3
-8 -6 -5 -6 6 -1 11 2 17 5 13 3 -3 4 -12 1 -19z m33 -12 c0 -3 -4 -8 -10 -11
-5 -3 -10 -1 -10 4 0 6 5 11 10 11 6 0 10 -2 10 -4z m-23 -73 c-3 -10 -5 -2
-5 17 0 19 2 27 5 18 2 -10 2 -26 0 -35z"/>
<path d="M3690 7530 c-8 -5 -10 -10 -5 -10 6 0 17 5 25 10 8 5 11 10 5 10 -5
0 -17 -5 -25 -10z"/>
<path d="M3625 7510 c-11 -5 -64 -28 -117 -50 -93 -40 -120 -60 -80 -60 9 0
28 6 42 13 14 8 58 26 97 41 67 25 125 67 92 65 -8 0 -23 -4 -34 -9z"/>
<path d="M1320 7323 c-30 -42 -83 -113 -117 -159 l-62 -83 44 -35 43 -36 38
50 c38 50 38 50 63 33 15 -10 127 -83 251 -163 301 -196 399 -263 400 -273 0
-5 -20 -35 -44 -67 l-45 -59 46 -26 c38 -23 47 -25 58 -14 7 8 84 118 170 244
87 127 177 253 201 281 50 60 53 55 -55 109 -41 20 -93 49 -115 62 l-40 26
-32 -39 c-18 -21 -30 -42 -28 -46 3 -4 36 -26 74 -49 39 -23 70 -43 70 -45 0
-2 -43 -69 -96 -148 l-95 -145 -77 53 c-42 29 -183 124 -312 211 -293 198
-279 188 -280 200 0 6 18 34 40 63 22 29 40 56 40 61 0 8 -46 47 -75 63 -5 3
-35 -28 -65 -69z"/>
<path d="M3145 7260 c-3 -6 1 -7 9 -4 18 7 21 14 7 14 -6 0 -13 -4 -16 -10z"/>
<path d="M6880 6810 c6 -11 20 -25 33 -31 18 -10 17 -6 -7 20 -34 36 -41 39
-26 11z"/>
<path d="M8360 6789 c-24 -11 -46 -22 -48 -24 -3 -2 14 -32 38 -65 23 -34 40
-64 37 -66 -7 -8 -378 -170 -637 -279 -74 -31 -140 -59 -147 -62 -7 -2 -23 19
-39 51 -15 31 -30 56 -33 55 -19 -2 -96 -47 -94 -56 1 -5 36 -81 77 -167 l75
-157 51 26 50 25 -25 50 c-14 27 -25 53 -25 58 0 5 62 35 138 67 75 33 256
110 401 172 145 62 267 113 270 113 4 0 19 -25 34 -55 24 -49 29 -54 46 -45
11 5 32 14 46 20 l26 10 -76 146 c-93 176 -109 204 -115 204 -3 0 -25 -10 -50
-21z"/>
<path d="M6976 6709 c21 -25 41 -44 44 -42 2 2 -16 23 -40 46 l-44 42 40 -46z"/>
<path d="M7042 6629 c7 -13 19 -29 26 -37 7 -8 24 -29 39 -48 14 -19 28 -33
30 -30 5 5 -83 122 -98 132 -6 3 -5 -4 3 -17z"/>
<path d="M7150 6496 c0 -9 49 -86 55 -86 3 0 0 10 -6 23 -15 28 -49 72 -49 63z"/>
<path d="M6798 6394 c-10 -44 0 -78 18 -63 16 13 19 49 5 49 -5 0 -11 10 -13
23 -3 19 -4 17 -10 -9z"/>
<path d="M1747 6251 c-10 -38 -17 -75 -17 -83 0 -13 -50 -16 -327 -21 -374 -7
-624 -22 -634 -39 -4 -6 -10 -29 -13 -52 -4 -22 -22 -90 -41 -150 -19 -59 -33
-112 -30 -116 6 -9 96 -33 102 -26 2 2 18 51 34 107 17 57 31 104 32 105 1 1
39 -29 84 -67 100 -84 397 -304 550 -406 l112 -74 -15 -47 c-7 -26 -14 -52
-14 -58 0 -9 109 -39 116 -31 1 1 16 54 34 117 18 63 45 160 60 215 41 146 42
135 -14 152 -26 8 -50 12 -52 10 -2 -2 -20 -57 -39 -122 -19 -65 -36 -119 -38
-121 -3 -3 -169 111 -227 156 l-32 25 35 125 c20 69 38 142 42 163 l6 37 97 0
c53 0 107 -3 119 -6 l21 -6 -19 -41 c-27 -61 -25 -72 20 -85 69 -21 65 -27
115 173 25 101 46 191 46 199 0 10 -65 36 -93 36 -2 0 -11 -31 -20 -69z m-411
-236 c-9 -53 -45 -187 -55 -204 -10 -15 0 -21 -215 127 -139 95 -147 102 -115
103 19 1 97 5 174 9 77 3 157 6 178 6 l39 -1 -6 -40z"/>
<path d="M8728 5893 l-38 -4 0 -52 c0 -29 4 -68 9 -88 l8 -36 -121 -7 c-106
-5 -207 -17 -571 -66 -44 -6 -90 -13 -103 -15 -26 -6 -25 -8 -47 98 l-17 77
-52 -6 c-28 -4 -52 -7 -53 -8 -1 -1 10 -64 24 -139 l26 -138 41 6 c94 13 658
66 662 62 6 -6 -410 -176 -534 -217 -103 -35 -117 -42 -120 -63 -4 -29 -31
-21 317 -92 253 -52 368 -79 377 -88 2 -2 -31 -7 -73 -10 -43 -4 -118 -11
-168 -17 -49 -5 -177 -19 -284 -30 -107 -11 -196 -22 -198 -24 -2 -2 1 -15 7
-30 5 -14 21 -90 36 -169 14 -78 29 -146 34 -151 5 -4 31 -1 59 9 l51 17 -6
41 c-4 23 -12 75 -20 116 -8 41 -13 76 -11 77 1 1 169 21 372 43 204 23 387
44 408 47 l38 6 -2 -104 -2 -103 57 -3 56 -3 0 148 c0 81 -4 153 -8 159 -4 6
-54 19 -112 29 -58 9 -200 39 -316 66 -116 26 -230 51 -253 55 -22 4 -41 9
-41 13 0 3 125 62 278 130 152 69 304 137 338 153 l60 29 -13 107 c-20 170
-23 182 -41 180 -10 -1 -34 -3 -54 -5z"/>
<path d="M2220 5251 c0 -6 5 -13 10 -16 6 -3 10 1 10 9 0 9 -4 16 -10 16 -5 0
-10 -4 -10 -9z"/>
<path d="M710 5185 c-186 -10 -195 -11 -193 -30 1 -11 9 -69 17 -130 8 -60 18
-146 21 -190 13 -169 35 -401 41 -427 l6 -28 163 0 c181 0 175 -3 175 72 l0
40 -124 -3 -125 -4 -5 26 c-3 14 -8 59 -12 100 l-6 74 223 18 c227 17 519 43
574 51 l31 4 -1 -75 c0 -42 4 -77 10 -79 5 -1 31 -5 58 -9 l47 -6 0 43 c0 24
-5 121 -12 216 l-12 173 -51 -3 -50 -3 3 -77 c3 -66 1 -78 -13 -78 -8 0 -80
-7 -158 -15 -154 -16 -547 -45 -613 -45 l-41 0 -6 63 c-4 34 -9 96 -13 138
l-6 76 138 7 c76 4 140 9 141 10 2 2 0 25 -4 52 l-8 49 -195 -10z"/>
<path d="M2242 5080 c0 -14 2 -19 5 -12 2 6 2 18 0 25 -3 6 -5 1 -5 -13z"/>
<path d="M8100 4413 c-64 -5 -167 -41 -225 -78 -195 -124 -281 -387 -187 -577
80 -163 258 -262 494 -275 120 -7 199 7 293 52 153 73 245 225 245 405 0 144
-102 303 -253 393 -91 55 -248 89 -367 80z m234 -134 c112 -36 189 -98 239
-194 29 -55 32 -68 32 -150 -1 -78 -5 -98 -29 -148 -36 -75 -84 -123 -160
-158 -149 -70 -355 -51 -500 46 -61 40 -98 84 -128 151 -16 37 -19 62 -16 123
13 266 276 420 562 330z"/>
<path d="M7820 3960 c-1 -23 -2 -24 -11 -5 -6 14 -8 0 -4 -44 11 -138 116
-236 295 -277 66 -15 87 -15 170 2 20 5 22 3 10 -5 -11 -8 -6 -9 20 -5 46 9
60 22 18 17 -27 -4 -30 -2 -18 7 13 10 12 11 -3 6 -24 -8 -53 8 -98 51 -23 22
-39 31 -43 24 -12 -19 -38 -13 -31 8 3 10 -1 24 -10 31 -8 7 -15 21 -15 31 0
21 -16 26 -23 7 -3 -7 -6 -3 -6 9 -1 27 -18 38 -35 24 -10 -9 -15 -8 -19 4 -4
8 -13 12 -21 9 -10 -4 -20 3 -27 20 -7 15 -20 26 -31 26 -26 0 -60 18 -80 44
-13 16 -18 17 -19 6 0 -8 -5 -4 -9 10 l-8 25 -2 -25z m365 -319 c-3 -6 -11
-11 -17 -11 -6 0 -6 6 2 15 14 17 26 13 15 -4z m50 9 c3 -5 2 -10 -4 -10 -5 0
-13 5 -16 10 -3 6 -2 10 4 10 5 0 13 -4 16 -10z"/>
<path d="M1693 4187 c-17 -7 -34 -15 -37 -18 -3 -3 3 -31 13 -61 l19 -56 -86
-27 c-48 -15 -179 -54 -292 -87 -113 -32 -265 -77 -338 -99 -72 -22 -136 -38
-141 -35 -5 3 -12 18 -15 33 -4 16 -11 40 -17 55 l-11 26 -44 -15 c-24 -8 -44
-21 -44 -28 0 -13 126 -345 134 -353 3 -2 28 4 56 13 57 19 57 20 13 108 -17
35 -20 49 -11 52 7 3 72 22 143 44 72 22 182 55 245 74 205 62 426 127 432
127 4 0 14 -24 24 -52 9 -29 18 -56 21 -60 5 -9 108 28 107 38 -1 5 -25 82
-53 172 -56 175 -54 172 -118 149z"/>
<path d="M7637 4147 c-3 -8 1 -14 8 -14 7 0 11 6 8 14 -3 7 -6 13 -8 13 -2 0
-5 -6 -8 -13z"/>
<path d="M2580 2891 c0 -5 7 -12 16 -15 14 -5 15 -4 4 9 -14 17 -20 19 -20 6z"/>
<path d="M2656 2809 c15 -16 31 -26 36 -23 10 6 -16 34 -32 34 -6 0 -9 4 -6 8
3 5 -2 9 -10 9 -10 0 -6 -9 12 -28z"/>
<path d="M2706 2775 c-8 -22 177 -179 359 -303 104 -72 209 -134 319 -189 117
-59 133 -65 133 -48 0 7 -5 11 -12 9 -6 -3 -53 17 -105 44 -124 63 -137 71
-188 111 -24 18 -46 31 -49 27 -3 -3 -12 3 -20 14 -8 11 -21 20 -29 20 -9 0
-12 5 -8 12 5 8 2 9 -10 5 -14 -6 -17 -3 -12 8 3 9 2 13 -4 10 -13 -8 -52 19
-42 30 4 5 1 5 -5 1 -7 -4 -20 2 -30 14 -10 12 -34 30 -54 40 -20 11 -39 26
-42 35 -4 8 -14 15 -22 15 -9 0 -13 5 -10 10 3 6 -1 10 -10 10 -10 0 -13 5 -9
12 4 7 3 8 -4 4 -13 -8 -52 27 -52 47 0 8 -4 7 -10 -3 -8 -13 -10 -13 -10 1 0
9 -16 24 -35 35 -28 15 -32 20 -18 25 15 5 15 6 1 12 -9 3 -19 0 -22 -8z"/>
<path d="M2328 2549 c-33 -19 -22 -64 23 -103 23 -19 39 -41 37 -48 -3 -7 -87
-134 -186 -281 l-180 -268 -57 51 c-43 39 -63 50 -83 48 -31 -3 -41 -30 -20
-55 31 -39 207 -170 273 -204 41 -21 114 -47 170 -60 87 -20 107 -21 164 -11
156 26 251 173 251 386 0 193 -63 305 -277 491 -76 67 -86 72 -115 54z m255
-339 l42 -85 -1 -125 c0 -138 -9 -171 -66 -235 -62 -71 -143 -91 -270 -64 -55
12 -140 50 -170 76 -21 19 -38 -11 186 325 l170 258 34 -33 c18 -17 52 -70 75
-117z"/>
<path d="M7076 2505 c-64 -18 -135 -63 -163 -103 -46 -69 -39 -248 16 -401 54
-151 156 -288 279 -373 105 -72 210 -77 337 -14 133 66 185 141 185 271 0 199
-260 533 -481 616 -57 22 -104 23 -173 4z m239 -141 c182 -123 335 -354 335
-505 0 -83 -42 -138 -145 -185 -90 -42 -165 -28 -278 53 -129 92 -232 269
-268 460 -15 80 -5 144 28 183 39 47 77 60 164 57 75 -3 79 -5 164 -63z"/>
<path d="M6591 2155 c-130 -77 -178 -134 -151 -184 16 -31 59 -27 102 9 l37
30 66 -102 c37 -57 123 -193 192 -302 l126 -199 -46 -40 c-53 -44 -64 -87 -27
-107 24 -13 29 -11 168 82 115 77 134 103 108 143 -20 31 -31 31 -81 0 -22
-13 -43 -25 -46 -25 -3 0 -35 46 -71 103 -36 56 -122 191 -192 301 l-126 199
40 43 c22 24 40 48 40 54 0 19 -20 50 -33 50 -7 0 -54 -25 -106 -55z"/>
<path d="M3680 2161 c0 -5 8 -11 18 -14 9 -2 26 -8 37 -12 l20 -7 -20 14 c-27
20 -55 29 -55 19z"/>
<path d="M3780 2120 c8 -5 22 -9 30 -9 10 0 8 3 -5 9 -27 12 -43 12 -25 0z"/>
<path d="M3870 2090 c8 -5 22 -9 30 -9 10 0 8 3 -5 9 -27 12 -43 12 -25 0z"/>
<path d="M3026 2064 c-23 -23 -4 -51 44 -64 22 -5 57 -15 79 -20 68 -18 67
-27 -10 -125 -39 -50 -127 -165 -197 -257 -69 -93 -129 -168 -133 -168 -4 0
-29 15 -55 33 -78 54 -91 59 -114 47 -47 -25 -20 -59 127 -160 91 -62 93 -63
118 -46 28 18 30 28 13 55 -9 15 -7 22 9 40 l21 22 86 -20 c47 -11 102 -27
122 -36 36 -15 36 -16 30 -58 -4 -24 -12 -66 -19 -93 -12 -48 -12 -49 -60 -56
-47 -6 -77 -22 -77 -39 0 -5 8 -17 19 -28 17 -17 32 -18 181 -15 89 2 166 7
171 10 13 8 11 50 -3 62 -7 5 -41 13 -75 17 -37 4 -63 12 -63 18 0 7 5 41 10
77 5 36 16 148 24 250 9 102 24 243 33 313 11 84 14 134 8 143 -11 17 -113 63
-209 94 -71 24 -61 23 -80 4z m173 -450 c-7 -93 -14 -172 -18 -176 -3 -4 -50
8 -103 25 l-97 32 111 147 c62 81 113 146 115 145 1 -2 -2 -80 -8 -173z"/>
<path d="M3928 2073 c7 -3 16 -2 19 1 4 3 -2 6 -13 5 -11 0 -14 -3 -6 -6z"/>
<path d="M4048 2043 c7 -3 16 -2 19 1 4 3 -2 6 -13 5 -11 0 -14 -3 -6 -6z"/>
<path d="M4238 2008 c6 -6 18 -8 28 -6 14 3 12 5 -9 10 -19 3 -25 2 -19 -4z"/>
<path d="M4408 1983 c7 -3 16 -2 19 1 4 3 -2 6 -13 5 -11 0 -14 -3 -6 -6z"/>
<path d="M4568 1973 c7 -3 16 -2 19 1 4 3 -2 6 -13 5 -11 0 -14 -3 -6 -6z"/>
<path d="M6170 1951 c-187 -62 -409 -211 -398 -267 5 -28 55 -30 89 -5 37 27
44 26 58 -7 6 -15 36 -70 65 -122 52 -90 53 -95 35 -108 -38 -26 -12 -80 34
-69 20 6 29 -7 97 -136 41 -78 76 -149 78 -159 2 -9 -5 -19 -17 -23 -21 -6
-81 -69 -81 -85 0 -19 30 -37 54 -33 33 7 193 120 219 155 22 29 18 72 -7 81
-8 3 -31 -5 -52 -19 -20 -14 -40 -22 -45 -17 -12 13 -149 288 -149 300 0 6 16
25 35 42 31 27 43 31 95 31 52 0 64 -4 96 -32 20 -17 74 -89 120 -159 91 -138
126 -169 189 -169 44 0 97 35 120 80 22 43 20 133 -4 154 -18 17 -21 17 -45 0
-23 -15 -26 -23 -25 -69 2 -61 -4 -75 -34 -75 -39 0 -64 27 -139 148 -71 114
-154 212 -180 212 -37 1 -38 16 -7 77 37 72 41 123 14 177 -40 79 -137 123
-215 97z m85 -95 c22 -10 41 -28 55 -56 l21 -41 -25 -54 c-17 -38 -37 -63 -66
-82 -23 -15 -57 -45 -77 -65 -20 -21 -41 -38 -47 -38 -16 0 -116 199 -119 235
-2 27 4 32 63 62 54 27 109 46 153 52 4 1 23 -5 42 -13z"/>
<path d="M4180 1707 c-33 -17 -36 -41 -9 -68 20 -20 28 -21 91 -15 53 5 70 3
74 -8 10 -25 -23 -383 -61 -672 l-6 -40 -65 -11 c-78 -14 -114 -35 -114 -67 0
-39 49 -47 136 -22 27 8 103 20 169 26 66 7 128 16 137 21 22 12 24 62 3 79
-12 10 -32 10 -86 3 -59 -8 -72 -7 -77 5 -3 8 0 65 6 126 44 417 37 390 69
301 13 -38 46 -122 73 -185 27 -64 62 -162 79 -218 33 -117 52 -152 82 -152
60 0 68 22 126 320 44 233 48 227 59 -92 l7 -208 -49 -21 c-27 -12 -57 -28
-66 -37 -23 -19 -23 -61 -2 -69 17 -6 148 32 234 67 25 11 59 22 77 25 35 7
47 19 56 53 11 46 -49 68 -103 37 -43 -25 -48 -19 -54 58 -18 249 -37 620 -32
633 6 15 19 16 98 11 53 -3 99 -2 110 4 24 13 24 65 0 78 -10 5 -81 13 -158
16 -164 9 -159 12 -178 -96 -25 -143 -121 -558 -127 -551 -14 16 -121 298
-176 465 -32 98 -66 187 -76 198 -15 16 -32 19 -120 19 -62 0 -112 -5 -127
-13z"/>
<path d="M5330 1677 c-143 -56 -165 -69 -168 -100 -3 -24 0 -27 24 -27 15 0
60 17 100 37 40 21 76 35 79 31 5 -5 31 -498 35 -659 0 -12 -18 -18 -82 -26
-86 -12 -110 -27 -101 -63 3 -10 15 -21 26 -24 35 -9 260 25 280 42 23 21 18
54 -10 67 -33 14 -31 58 5 83 32 23 135 76 174 91 27 10 28 8 72 -71 l44 -82
-35 -42 c-42 -52 -42 -87 0 -92 23 -3 40 10 110 81 45 46 99 98 121 115 32 25
38 35 32 56 -3 13 -15 28 -27 31 -20 7 -35 -1 -95 -50 l-31 -25 -191 287
c-236 356 -244 367 -262 370 -8 2 -53 -12 -100 -30z m244 -323 c53 -74 96
-139 96 -143 0 -8 -180 -95 -185 -89 -5 6 -17 368 -12 368 3 0 48 -61 101
-136z"/>
</g>
</svg>
